<?xml version="1.0" encoding="UTF-8" standalone="no"?>
<svg
   xmlns:dc="http://purl.org/dc/elements/1.1/"
   xmlns:cc="http://creativecommons.org/ns#"
   xmlns:rdf="http://www.w3.org/1999/02/22-rdf-syntax-ns#"
   xmlns:svg="http://www.w3.org/2000/svg"
   xmlns="http://www.w3.org/2000/svg"
   xmlns:sodipodi="http://sodipodi.sourceforge.net/DTD/sodipodi-0.dtd"
   xmlns:inkscape="http://www.inkscape.org/namespaces/inkscape"
   width="256.0px"
   height="256.0px"
   viewBox="0 0 256.0 256.0"
   version="1.1"
   id="SVGRoot"
   sodipodi:docname="sws-logo.svg"
   inkscape:version="1.0.1 (3bc2e813f5, 2020-09-07)">
  <defs
     id="defs931" />
  <sodipodi:namedview
     id="base"
     pagecolor="#ffffff"
     bordercolor="#666666"
     borderopacity="1.0"
     inkscape:pageopacity="0.0"
     inkscape:pageshadow="2"
     inkscape:zoom="0.68087432"
     inkscape:cx="121.79541"
     inkscape:cy="207.4"
     inkscape:document-units="px"
     inkscape:current-layer="layer1"
     inkscape:document-rotation="0"
     showgrid="true"
     inkscape:window-width="1366"
     inkscape:window-height="753"
     inkscape:window-x="0"
     inkscape:window-y="0"
     inkscape:window-maximized="1">
    <inkscape:grid
       type="xygrid"
       id="grid940" />
  </sodipodi:namedview>
  <metadata
     id="metadata934">
    <rdf:RDF>
      <cc:Work
         rdf:about="">
        <dc:format>image/svg+xml</dc:format>
        <dc:type
           rdf:resource="http://purl.org/dc/dcmitype/StillImage" />
        <dc:title></dc:title>
      </cc:Work>
    </rdf:RDF>
  </metadata>
  <g
     inkscape:label="Layer 1"
     inkscape:groupmode="layer"
     id="layer1">
    <g
       id="g900"
       transform="matrix(3.0656868,0,0,3.0656881,-257.95675,-276.63819)">
      <path
         id="path14"
         style="opacity:0.995;fill:#252525;fill-opacity:0.996078;stroke-width:0.886079;stroke-linecap:round;stroke-linejoin:round;paint-order:stroke fill markers"
         d="m 158.99053,106.53373 c -2.28898,0.23678 -4.61365,0.47636 -7.27537,0.77846 -1.74922,0.19853 -3.55688,0.41028 -5.39357,0.63428 -1.83668,0.224 -3.7024,0.46022 -5.56824,0.70751 -1.86584,0.24729 -3.73172,0.50564 -5.56841,0.77405 -1.83669,0.2684 -3.64418,0.54689 -5.3934,0.83423 -1.74923,0.28734 -3.44028,0.58347 -5.04373,0.88757 -0.80173,0.15204 -1.5815,0.30605 -2.33586,0.46188 -0.75435,0.15583 -1.48318,0.31348 -2.18287,0.47282 -0.69969,0.15934 -1.37029,0.32035 -2.00803,0.48292 -0.63774,0.16258 -1.24268,0.32685 -1.81118,0.49239 -0.5685,0.16554 -1.10049,0.33247 -1.59246,0.5007 -0.49197,0.16823 -0.94391,0.33772 -1.35206,0.50837 -0.40816,0.17065 -0.7726,0.34242 -1.08964,0.51522 -0.31705,0.1728 -0.58672,0.34658 -0.80537,0.52125 -0.10933,0.0873 -0.20581,0.17499 -0.28917,0.26275 -0.0834,0.0878 -0.15358,0.17558 -0.21006,0.26372 -0.0565,0.0881 -0.0993,0.17654 -0.12804,0.26503 -0.0287,0.0885 -0.0432,0.17721 -0.0432,0.26601 0,0.35523 0.0155,0.69604 0.0462,1.02343 0.0307,0.32739 0.0766,0.64131 0.13733,0.94253 0.0607,0.30121 0.13622,0.58966 0.22621,0.86636 0.09,0.2767 0.19438,0.54157 0.31298,0.79542 0.1186,0.25384 0.25145,0.49671 0.39795,0.72936 0.14651,0.23265 0.30677,0.45509 0.48048,0.6682 0.17372,0.21312 0.36083,0.41686 0.56105,0.6121 0.20023,0.19524 0.41346,0.38202 0.6395,0.56105 0.22604,0.17903 0.46483,0.35042 0.71599,0.51489 0.25115,0.16448 0.51479,0.32205 0.79036,0.47363 0.27557,0.15158 0.56315,0.29707 0.86245,0.43742 0.29929,0.14035 0.61026,0.27549 0.93258,0.40627 0.32232,0.13078 0.65594,0.25731 1.00059,0.38018 0.34465,0.12287 0.70037,0.24219 1.06664,0.35881 0.73256,0.23324 1.5076,0.45555 2.32249,0.67375 6.51907,1.74554 9.00087,2.41004 16.00146,4.28452 0.43754,0.11715 0.87336,0.25616 1.30591,0.41524 0.43254,0.15908 0.86176,0.33834 1.28633,0.53626 0.42458,0.19791 0.8445,0.41446 1.25812,0.64814 0.41362,0.23368 0.82108,0.48437 1.22077,0.75073 0.39969,0.26635 0.79167,0.54839 1.17445,0.84434 0.38278,0.29595 0.75628,0.60588 1.11916,0.92834 0.36289,0.32246 0.71506,0.65731 1.05507,1.0032 0.34001,0.34589 0.66784,0.70286 0.982,1.06909 0.31415,0.36624 0.61464,0.74186 0.89996,1.12536 0.28531,0.38351 0.55545,0.77481 0.80895,1.1725 0.2535,0.39769 0.49028,0.8017 0.70898,1.21049 0.2187,0.40879 0.41927,0.82239 0.60019,1.2392 0.18092,0.41681 0.34227,0.83686 0.48244,1.25861 0.14016,0.42175 0.25912,0.84528 0.35554,1.26888 0.0964,0.42361 0.17032,0.84732 0.22002,1.2697 0.0497,0.42238 0.0752,0.84331 0.0752,1.26138 0,0.41807 -0.0108,0.82821 -0.0323,1.2304 -0.0215,0.40218 -0.0537,0.79645 -0.0961,1.18309 -0.0423,0.38665 -0.0949,0.76566 -0.15739,1.1371 -0.0625,0.37145 -0.13494,0.73534 -0.21691,1.09193 -0.082,0.35658 -0.17357,0.70582 -0.27433,1.04789 -0.10076,0.34207 -0.21076,0.67693 -0.32962,1.00483 -0.11886,0.32789 -0.2465,0.64885 -0.38278,0.96291 -0.13628,0.31407 -0.28115,0.62125 -0.43416,0.92182 -0.15302,0.30057 -0.31418,0.5946 -0.48325,0.88202 -0.16908,0.28742 -0.34611,0.56826 -0.53055,0.84288 -0.18445,0.27461 -0.37627,0.54289 -0.5754,0.80504 -0.19914,0.26215 -0.40549,0.51815 -0.61863,0.76818 -0.21313,0.25002 -0.4331,0.49405 -0.65956,0.7323 -0.22645,0.23824 -0.45943,0.47075 -0.69853,0.69756 -0.2391,0.2268 -0.48434,0.44793 -0.7354,0.66363 -0.25106,0.2157 -0.50797,0.42591 -0.7703,0.63086 -0.13117,0.10247 -0.31853,0.22123 -0.5586,0.35522 -0.24008,0.13399 -0.53282,0.28329 -0.87452,0.44655 -0.6834,0.32653 -1.56274,0.70936 -2.60888,1.13955 -1.04613,0.43019 -2.25909,0.90772 -3.60963,1.42366 -1.35054,0.51594 -2.83859,1.07019 -4.43522,1.65395 -1.59662,0.58377 -3.30176,1.19708 -5.08613,1.83075 -1.78438,0.63367 -3.64808,1.28774 -5.56189,1.9534 -2.45155,0.8527 -5.03569,1.72906 -7.59046,2.60072 a 41.752457,41.752457 0 0 0 12.26902,1.8433 41.752457,41.752457 0 0 0 41.75246,-41.75245 41.752457,41.752457 0 0 0 -8.6576,-25.45563 z" />
      <path
         id="path58"
         style="opacity:0.995;fill:#0ca274;fill-opacity:1;stroke-width:0.886079;stroke-linecap:round;stroke-linejoin:round;paint-order:stroke fill markers"
         d="m 125.89567,90.236902 a 41.752457,41.752457 0 0 0 -41.752453,41.752458 41.752457,41.752457 0 0 0 20.245213,35.78691 c 1.08607,-0.37265 1.89277,-0.64247 2.9884,-1.01967 3.65651,-1.25886 7.33353,-2.53251 10.81274,-3.74941 3.47921,-1.2169 6.76072,-2.37708 9.62606,-3.40935 1.43268,-0.51613 2.76131,-1.00033 3.95866,-1.44356 1.19735,-0.44322 2.26328,-0.84545 3.17074,-1.19793 0.90745,-0.35249 1.65641,-0.65524 2.2194,-0.89915 0.2815,-0.12195 0.51649,-0.22918 0.70164,-0.32064 0.18514,-0.0915 0.32038,-0.16714 0.40236,-0.22589 0.3279,-0.235 0.64491,-0.48371 0.94856,-0.74714 0.30365,-0.26343 0.59403,-0.54162 0.86865,-0.8357 0.27461,-0.29409 0.53341,-0.60399 0.77421,-0.93095 0.2408,-0.32696 0.46355,-0.671 0.66576,-1.03305 0.1011,-0.18103 0.19714,-0.36643 0.2877,-0.55664 0.0906,-0.19022 0.17567,-0.38518 0.25508,-0.58487 0.0794,-0.19968 0.153,-0.40413 0.22067,-0.61356 0.0677,-0.20943 0.12945,-0.4238 0.18478,-0.64325 0.0553,-0.21945 0.10423,-0.44399 0.14663,-0.67375 0.0424,-0.22975 0.0783,-0.46473 0.10715,-0.70506 0.0289,-0.24033 0.0507,-0.486 0.0654,-0.73719 0.0147,-0.25119 0.0223,-0.50798 0.0223,-0.7703 0,-0.26232 -0.0197,-0.52511 -0.0581,-0.78792 -0.0384,-0.26281 -0.0956,-0.52561 -0.17076,-0.78758 -0.0752,-0.26198 -0.16841,-0.52321 -0.27873,-0.78303 -0.11031,-0.25981 -0.23766,-0.51821 -0.38148,-0.77454 -0.14382,-0.25632 -0.30397,-0.51047 -0.47966,-0.76198 -0.1757,-0.25151 -0.36702,-0.5003 -0.57296,-0.74567 -0.20593,-0.24537 -0.42664,-0.48739 -0.66119,-0.72529 -0.23454,-0.2379 -0.48284,-0.47171 -0.74436,-0.70082 -0.26152,-0.2291 -0.53612,-0.45346 -0.82298,-0.67244 -0.28686,-0.21899 -0.58597,-0.43261 -0.89654,-0.64015 -0.31057,-0.20754 -0.63271,-0.40902 -0.96536,-0.60378 -0.33265,-0.19476 -0.67588,-0.38283 -1.02897,-0.5635 -0.35309,-0.18066 -0.71595,-0.35389 -1.08785,-0.51913 -0.3719,-0.16523 -0.75291,-0.32237 -1.14199,-0.47086 -0.38908,-0.14848 -0.7863,-0.28826 -1.19093,-0.41866 -0.40462,-0.1304 -0.81658,-0.25141 -1.23512,-0.3624 -6.69662,-1.7759 -8.99668,-2.38585 -15.82663,-4.1971 -0.42687,-0.1132 -0.84921,-0.23261 -1.26594,-0.3593 -0.41674,-0.12669 -0.82779,-0.2607 -1.23219,-0.40317 -0.4044,-0.14248 -0.80205,-0.29352 -1.1919,-0.45406 -0.38985,-0.16054 -0.772,-0.33056 -1.1451,-0.51147 -0.3731,-0.1809 -0.73729,-0.37266 -1.09143,-0.57621 -0.35414,-0.20356 -0.69812,-0.41899 -1.03109,-0.64749 -0.33298,-0.2285 -0.65494,-0.47005 -0.96455,-0.72578 -0.3096,-0.25573 -0.60696,-0.52566 -0.89099,-0.81091 -0.28403,-0.28525 -0.55467,-0.58583 -0.81091,-0.9029 -0.25625,-0.31706 -0.49805,-0.65056 -0.72431,-1.00173 -0.22626,-0.35117 -0.43695,-0.72002 -0.63102,-1.10758 -0.19406,-0.38756 -0.37154,-0.79387 -0.5312,-1.22012 -0.15966,-0.42624 -0.30148,-0.87245 -0.42453,-1.33967 -0.12306,-0.46721 -0.22727,-0.95542 -0.31152,-1.4659 -0.0842,-0.51048 -0.14857,-1.04311 -0.1918,-1.59915 -0.0432,-0.55604 -0.0654,-1.13553 -0.0654,-1.73941 0,-0.15097 0.0167,-0.30179 0.0494,-0.45243 0.0327,-0.15064 0.0815,-0.30104 0.14597,-0.45129 0.0644,-0.15024 0.14451,-0.30036 0.23959,-0.45014 0.0951,-0.14978 0.20524,-0.29925 0.32994,-0.44851 0.1247,-0.14926 0.26392,-0.29821 0.4172,-0.44688 0.15327,-0.14868 0.32054,-0.29707 0.50135,-0.44509 0.18081,-0.14802 0.37511,-0.29567 0.58242,-0.44297 0.20731,-0.1473 0.4276,-0.29433 0.66037,-0.44085 0.46554,-0.29304 0.98093,-0.58434 1.54207,-0.87386 0.56114,-0.28953 1.16797,-0.57712 1.81639,-0.86261 0.64843,-0.2855 1.33854,-0.56894 2.06594,-0.8499 0.72739,-0.28095 1.49212,-0.55947 2.29018,-0.83537 0.79806,-0.2759 1.62941,-0.54923 2.48982,-0.81956 0.86041,-0.27032 1.74988,-0.5377 2.66433,-0.80194 0.91444,-0.26423 1.85388,-0.52522 2.81405,-0.78285 0.96016,-0.25764 1.94108,-0.5118 2.93865,-0.76231 1.99515,-0.50103 4.05673,-0.98731 6.15164,-1.45677 2.09491,-0.46947 4.22311,-0.9222 6.35127,-1.35598 2.12816,-0.43378 4.25635,-0.84864 6.35126,-1.24262 2.09491,-0.39398 4.15649,-0.76715 6.15164,-1.11721 1.63935,-0.28763 3.19573,-0.54894 4.72683,-0.80439 A 41.752457,41.752457 0 0 0 125.89567,90.236902 Z" />
    </g>
  </g>
</svg>
