<?xml version="1.0" encoding="UTF-8" standalone="no"?>
<svg
   xmlns:dc="http://purl.org/dc/elements/1.1/"
   xmlns:cc="http://creativecommons.org/ns#"
   xmlns:rdf="http://www.w3.org/1999/02/22-rdf-syntax-ns#"
   xmlns:svg="http://www.w3.org/2000/svg"
   xmlns="http://www.w3.org/2000/svg"
   xmlns:sodipodi="http://sodipodi.sourceforge.net/DTD/sodipodi-0.dtd"
   xmlns:inkscape="http://www.inkscape.org/namespaces/inkscape"
   width="256.0px"
   height="256.0px"
   viewBox="0 0 256.0 256.0"
   version="1.1"
   id="SVGRoot"
   sodipodi:docname="sws-logo.svg"
   inkscape:version="1.0.1 (3bc2e813f5, 2020-09-07)">
  <defs
     id="defs931" />
  <sodipodi:namedview
     id="base"
     pagecolor="#ffffff"
     bordercolor="#666666"
     borderopacity="1.0"
     inkscape:pageopacity="0.0"
     inkscape:pageshadow="2"
     inkscape:zoom="0.70710678"
     inkscape:cx="196.82812"
     inkscape:cy="168.44394"
     inkscape:document-units="px"
     inkscape:current-layer="layer1"
     inkscape:document-rotation="0"
     showgrid="false"
     inkscape:window-width="1366"
     inkscape:window-height="753"
     inkscape:window-x="0"
     inkscape:window-y="0"
     inkscape:window-maximized="1">
    <inkscape:grid
       type="xygrid"
       id="grid940" />
  </sodipodi:namedview>
  <metadata
     id="metadata934">
    <rdf:RDF>
      <cc:Work
         rdf:about="">
        <dc:format>image/svg+xml</dc:format>
        <dc:type
           rdf:resource="http://purl.org/dc/dcmitype/StillImage" />
        <dc:title></dc:title>
      </cc:Work>
    </rdf:RDF>
  </metadata>
  <g
     inkscape:label="Layer 1"
     inkscape:groupmode="layer"
     id="layer1">
    <g
       id="g1063">
      <path
         id="path1026"
         style="opacity:0.995;fill:#252525;fill-opacity:0.992157;stroke-width:27.8055;stroke-linecap:round;stroke-linejoin:round;paint-order:stroke fill markers"
         d="m 255.23828,114.07031 c -8.24665,-4.74825 -17.37621,-9.9076 -27.11914,-15.273435 -23.06271,-12.701596 -46.22794,-25.100994 -50.13672,-27.572266 -3.90879,-2.471275 -7.94753,-4.646056 -12.11523,-6.527343 -4.16771,-1.881287 -8.46401,-3.46847 -12.89063,-4.759766 -3.33329,-0.97236 -6.4972,-1.745752 -9.49023,-2.322266 -2.99303,-0.576513 -5.81598,-0.956053 -8.46875,-1.136718 -2.65278,-0.180666 -5.13475,-0.16245 -7.44727,0.05273 -2.31251,0.215184 -4.45548,0.627247 -6.42773,1.238281 -1.9378,0.592136 -3.71337,1.387333 -5.32813,2.384766 -1.61476,0.997432 -3.06765,2.196882 -4.35937,3.599609 -1.29172,1.402727 -2.42194,3.008387 -3.39063,4.816406 -0.96868,1.80802 -1.77622,3.817941 -2.42187,6.03125 -0.58342,1.999977 -0.97684,3.919757 -1.17969,5.75586 -0.20285,1.836102 -0.21482,3.589489 -0.0371,5.261719 0.17771,1.672229 0.54525,3.263127 1.10352,4.771484 0.55827,1.508357 1.30726,2.934811 2.24609,4.279297 0.93883,1.344485 2.33536,2.814529 4.19141,4.412109 1.85604,1.597583 4.1701,3.321203 6.94336,5.171883 2.77325,1.85067 6.00679,3.82787 9.69726,5.93164 3.69047,2.10376 7.83959,4.33455 12.44727,6.6914 l 11.18554,5.69336 c 3.45105,1.75904 6.628,3.62616 9.53125,5.60157 2.90326,1.9754 5.53321,4.06018 7.88868,6.25195 2.35546,2.19177 4.43646,4.49225 6.24414,6.90039 1.80767,2.40813 3.34167,4.92433 4.60156,7.54883 1.28656,2.63227 2.28989,5.35067 3.01172,8.1582 0.72183,2.80753 1.16126,5.70276 1.31836,8.68555 0.1571,2.98279 0.0326,6.05289 -0.375,9.21093 -0.40763,3.15805 -1.09796,6.40499 -2.07032,9.73829 -0.64564,2.2133 -1.37238,4.3371 -2.17968,6.37304 -0.80731,2.03594 -1.6951,3.98323 -2.66406,5.8418 -0.96897,1.85857 -2.01782,3.62934 -3.14844,5.31055 -1.13063,1.6812 -2.34248,3.2735 -3.63477,4.77734 -1.29228,1.50384 -2.66519,2.91963 -4.11914,4.24609 -1.45394,1.32647 -2.98986,2.56379 -4.60547,3.71289 -1.6156,1.14911 -3.31062,2.20991 -5.08789,3.18165 -1.77726,0.97173 -3.63529,1.85407 -5.57422,2.64843 -1.93503,0.78104 -3.9256,1.46167 -5.96875,2.04297 -2.04315,0.58131 -4.13974,1.06374 -6.29101,1.44531 -2.15127,0.38158 -4.35585,0.6619 -6.61524,0.84375 -2.25938,0.18185 -4.5739,0.26397 -6.9414,0.2461 -2.36751,-0.0179 -4.78806,-0.13396 -7.26367,-0.35156 -2.47562,-0.21761 -5.00611,-0.5358 -7.58985,-0.95313 -2.58373,-0.41733 -5.22221,-0.93568 -7.91406,-1.55273 -2.69185,-0.61706 -5.436362,-1.33361 -8.236329,-2.1504 -4.426617,-1.29129 -8.8907,-2.85397 -13.390625,-4.6875 -4.499925,-1.83352 -9.036137,-3.93674 -13.609375,-6.3125 C 65.262246,208.16693 57.424099,202.88021 46.796875,195.49414 36.169651,188.10807 22.75285,178.62297 9.3046875,169.0625 7.7945374,167.98891 7.4973016,167.77377 5.9902344,166.70117 A 128,128 0 0 0 128,256 128,128 0 0 0 256,128 128,128 0 0 0 255.23828,114.07031 Z" />
      <path
         id="path1049"
         style="opacity:0.995;fill:#0ca274;fill-opacity:0.996078;stroke-width:27.8055;stroke-linecap:round;stroke-linejoin:round;paint-order:stroke fill markers"
         d="M 127.67578,0 A 128,128 0 0 0 0,128 a 128,128 0 0 0 0,0.21484 c 5.8818153,4.42195 11.035668,8.35766 17.185547,12.9375 13.339256,9.93381 26.67417,19.7725 37.248047,27.49024 10.573877,7.71773 18.386983,13.31442 20.683594,14.76562 4.608777,2.84909 9.186106,5.31266 13.730468,7.39063 2.272181,1.03898 4.536892,1.98192 6.792969,2.82812 2.256077,0.84621 4.504165,1.59462 6.744145,2.24805 3.2533,0.94903 6.36963,1.68186 9.35156,2.19727 2.98192,0.5154 5.82851,0.8147 8.53906,0.89648 2.71055,0.0818 5.28543,-0.0544 7.72461,-0.40625 2.43918,-0.35184 4.74235,-0.91961 6.91016,-1.70508 2.17559,-0.81214 4.16593,-1.81905 5.9707,-3.02148 1.80477,-1.20243 3.42346,-2.60064 4.85742,-4.19336 1.43396,-1.59272 2.68296,-3.38027 3.7461,-5.36328 1.06313,-1.98302 1.94049,-4.16185 2.63281,-6.53516 0.49785,-1.70665 0.7731,-3.40746 0.82422,-5.10156 0.0511,-1.6941 -0.12196,-3.38095 -0.51758,-5.0625 -0.39563,-1.68155 -1.01311,-3.3564 -1.85547,-5.02539 -0.84236,-1.669 -1.90817,-3.33184 -3.19727,-4.98828 -1.2891,-1.65645 -2.80127,-3.30728 -4.53711,-4.95118 -1.73583,-1.64389 -3.69633,-3.28076 -5.8789,-4.91211 -2.18257,-1.63134 -4.58749,-3.2562 -7.2168,-4.875 -2.62931,-1.61879 -5.48255,-3.23165 -8.55859,-4.83789 l -1.1875,-0.69335 -10.38477,-5.46094 c -3.9988,-2.0635 -7.67182,-4.18312 -11.015623,-6.35938 -3.343801,-2.17625 -6.360031,-4.40826 -9.048828,-6.69726 -2.688798,-2.28901 -5.050191,-4.63536 -7.083985,-7.03711 -2.033793,-2.40176 -3.738399,-4.86049 -5.117187,-7.375 -1.371005,-2.54117 -2.447241,-5.186924 -3.228516,-7.939456 -0.781275,-2.752531 -1.269393,-5.610319 -1.460937,-8.574218 -0.191544,-2.9639 -0.08764,-6.033718 0.310547,-9.208985 0.398187,-3.175267 1.092157,-6.457115 2.080078,-9.84375 0.6262,-2.146642 1.323815,-4.205464 2.095703,-6.175781 0.771887,-1.970317 1.617581,-3.852493 2.535156,-5.646484 0.917575,-1.793991 1.907441,-3.499523 2.970703,-5.117188 1.063262,-1.617665 2.199254,-3.146551 3.408203,-4.58789 1.208949,-1.44134 2.491067,-2.795534 3.845704,-4.060547 1.354636,-1.265014 2.782879,-2.440609 4.283203,-3.529297 1.500323,-1.088688 3.072739,-2.089591 4.71875,-3.001953 1.646009,-0.912363 3.364549,-1.73662 5.156249,-2.472657 1.79559,-0.749372 3.64689,-1.403445 5.55469,-1.960937 1.9078,-0.557493 3.87256,-1.019153 5.89258,-1.384766 2.02001,-0.365612 4.09628,-0.634861 6.22851,-0.808593 2.13223,-0.173733 4.32001,-0.250569 6.56446,-0.232422 2.24444,0.01815 4.54568,0.131769 6.90234,0.341796 2.35666,0.210028 4.76941,0.516062 7.23828,0.917969 4.93775,0.803815 10.09972,1.991163 15.48633,3.5625 4.79994,1.400199 9.44084,2.999752 13.92187,4.798828 4.48104,1.799077 8.80271,3.79814 12.96485,5.996094 4.17769,2.144626 27.60864,14.128737 50.93359,26.328125 3.44606,1.802355 6.22061,3.318908 9.59961,5.09961 A 128,128 0 0 0 128,0 128,128 0 0 0 127.67578,0 Z" />
    </g>
    <g
       aria-label="s"
       id="text1030"
       style="font-size:111.34px;line-height:1.25;font-family:sans-serif;letter-spacing:0px;word-spacing:0px;stroke-width:0.326191"
       transform="matrix(2.9430238,0.85851463,-0.85851426,2.943025,-129.19926,-368.53126)">
      <g
         id="g1036" />
    </g>
  </g>
</svg>
