<?xml version="1.0" encoding="UTF-8" standalone="no"?>
<svg
   xmlns:dc="http://purl.org/dc/elements/1.1/"
   xmlns:cc="http://creativecommons.org/ns#"
   xmlns:rdf="https://www.w3.org/1999/02/22-rdf-syntax-ns#"
   xmlns:svg="https://www.w3.org/2000/svg"
   xmlns="https://www.w3.org/2000/svg"
   xmlns:sodipodi="http://sodipodi.sourceforge.net/DTD/sodipodi-0.dtd"
   xmlns:inkscape="http://www.inkscape.org/namespaces/inkscape"
   height="512"
   viewBox="0 0 58 54"
   width="512"
   version="1.1"
   id="svg26"
   sodipodi:docname="arrow.svg"
   inkscape:version="0.92.4 5da689c313, 2019-01-14">
  <metadata
     id="metadata32">
    <rdf:RDF>
      <cc:Work
         rdf:about="">
        <dc:format>image/svg+xml</dc:format>
        <dc:type
           rdf:resource="http://purl.org/dc/dcmitype/StillImage" />
        <dc:title></dc:title>
      </cc:Work>
    </rdf:RDF>
  </metadata>
  <defs
     id="defs30" />
  <sodipodi:namedview
     pagecolor="#ffffff"
     bordercolor="#666666"
     borderopacity="1"
     objecttolerance="10"
     gridtolerance="10"
     guidetolerance="10"
     inkscape:pageopacity="0"
     inkscape:pageshadow="2"
     inkscape:window-width="1366"
     inkscape:window-height="753"
     id="namedview28"
     showgrid="false"
     inkscape:zoom="0.4609375"
     inkscape:cx="-128"
     inkscape:cy="256"
     inkscape:window-x="0"
     inkscape:window-y="0"
     inkscape:window-maximized="0"
     inkscape:current-layer="svg26" />
  <g
     id="Page-1"
     fill="none"
     fill-rule="evenodd">
    <g
       id="042---Backup"
       fill="rgb(0,0,0)"
       fill-rule="nonzero"
       transform="translate(0 -1)">
      <path
         id="Shape"
         d="m31 55c-7.3173027.011567-14.3230796-2.9604714-19.4-8.23-.3729341-.3969634-.3595967-1.0193765.03-1.4l4.23-4.23c.1896086-.1896697.4468097-.2962301.715-.2962301s.5253914.1065604.715.2962301c5.7398558 5.9936431 14.7055954 7.5686095 22.1445242 3.8900173 7.4389288-3.6785923 11.6297567-11.7595555 10.3509464-19.9592108s-7.7313555-14.6206884-15.9371731-15.85934112c-8.2058176-1.23865277-16.2661673 2.99168602-19.9082975 10.44853462-1.2830055 2.5925368-1.9470798 5.4473714-1.94 8.34 0 .33.01.67.02 1h2.92c.4249784-.0020627.8092925.2522538.9735247.6442215.1642323.3919676.0759924.8442816-.2235247 1.1457785l-6.94 6.9c-.41586506.4102071-1.08413494.4102071-1.5 0l-6.94-6.9c-.29951711-.3014969-.38775698-.7538109-.22352472-1.1457785.16423226-.3919677.54854634-.6462842.97352472-.6442215h2.97c-.02-.33-.03-.66-.03-1-.00474487-2.8323853.44081556-5.6475171 1.32-8.34 4.26869748-13.14372364 17.7729745-20.94248179 31.2907794-18.07051347 13.5178048 2.87196831 22.68491 15.48744727 21.2411124 29.23134397-1.4437976 13.7438968-13.0323676 24.1789901-26.8518918 24.1791695z" />
      <path
         id="path3"
         d="m30 15c0-.5522847.4477153-1 1-1 .2693445-.0003954.526929.110308.712.306.1865985.1823963.2906276.4330776.288.694v7.09c-.6612656-.1200121-1.3387344-.1200121-2 0zm1 17c-2.209139 0-4-1.790861-4-4s1.790861-4 4-4 4 1.790861 4 4-1.790861 4-4 4zm13.694-3.287c-.1830903.1854514-.4334037.2889672-.694.287h-7.09c.1200121-.6612656.1200121-1.3387344 0-2h7.09c.5522847 0 1 .4477153 1 1 .0006712.2696918-.1100548.5276905-.306.713z" />
      <circle
         id="Oval"
         cx="31"
         cy="43"
         r="1" />
      <circle
         id="circle6"
         cx="36.13"
         cy="42.095"
         r="1" />
      <circle
         id="circle8"
         cx="40.642"
         cy="39.491"
         r="1" />
      <circle
         id="circle10"
         cx="21.358"
         cy="16.509"
         r="1" />
      <circle
         id="circle12"
         cx="43.99"
         cy="35.5"
         r="1" />
      <circle
         id="circle14"
         cx="18.01"
         cy="20.5"
         r="1" />
      <circle
         id="circle16"
         cx="16.228"
         cy="25.395"
         r="1" />
      <circle
         id="circle18"
         cx="18.01"
         cy="35.5"
         r="1" />
      <circle
         id="circle20"
         cx="21.358"
         cy="39.491"
         r="1" />
      <circle
         id="circle22"
         cx="25.87"
         cy="42.095"
         r="1" />
    </g>
  </g>
</svg>
